#!OML:ASF X:\für Bonn\!DataBase\2005_08_12_Daniel\c3d\Daniel.ASF
:FULLY-SPECIFIED
:DEGREES
97
root -3.49701 6.11707 -1.17096 379.208 -87.6701 -411.503
lowerback 53.5371 -4.14126 5.08148
upperback 5.64013 -4.21217 -2.64941
thorax -15.2132 -2.61382 -3.05345
lowerneck 8.77076 2.29726 -1.51889
upperneck -3.99275 2.85462 -0.463698
head -2.82259 1.45816 -0.0317568
rclavicle -1.58034e-014 8.74653e-015
rhumerus 83.925 -20.7416 -189.301
rradius 7.42258
rwrist 152.994
rhand -25.8176 13.1345
rfingers 7.12502
rthumb 0.721937 -16.844
lclavicle -1.58034e-014 8.74653e-015
lhumerus 58.8286 -0.311859 88.6862
lradius 11.148
lwrist -61.9038
lhand -22.1406 -1.98087
lfingers 7.12502
lthumb 4.27299 27.956
rfemur 157.17 49.2852 30.7114
rtibia 202.927
rfoot 165.905 95.2487
rtoes -4.78874
lfemur -4.99575 249.022 -235.932
ltibia 205.258
lfoot 103.555 -99.3774
ltoes 14.4468
98
root -3.48658 6.18495 -1.16944 379.271 -87.6809 -411.291
lowerback 53.4121 -4.16201 5.10776
upperback 5.60001 -4.21591 -2.64957
thorax -15.2481 -2.61267 -3.0665
lowerneck 8.77984 2.31554 -1.59625
upperneck -4.00527 2.87299 -0.414137
head -2.83091 1.46683 -0.00354626
rclavicle 1.92821e-014 3.57812e-015
rhumerus 83.8593 -20.9026 -189.043
rradius 7.46688
rwrist 153.078
rhand -25.5878 13.0199
rfingers 7.12502
rthumb 0.943859 -16.9577
lclavicle 1.92821e-014 3.57812e-015
lhumerus 58.8741 -0.155328 88.8774
lradius 10.9695
lwrist -62.0008
lhand -22.1953 -2.01935
lfingers 7.12502
lthumb 4.22016 27.9186
rfemur 156.039 49.6447 31.1518
rtibia 203.264
rfoot 174.451 93.9804
rtoes -4.78786
lfemur -5.10293 249.173 -237.113
ltibia 205.617
lfoot 100.013 -98.5669
ltoes 14.3193
99
root -3.47461 6.26614 -1.16752 379.97 -87.6924 -411.727
lowerback 53.316 -4.17561 5.13092
upperback 5.55215 -4.20766 -2.62633
thorax -15.2918 -2.60699 -3.05682
lowerneck 8.81349 2.31802 -1.66322
upperneck -4.0547 2.86545 -0.445807
head -2.85475 1.46568 -0.00261263
rclavicle -8.84592e-015 -1.98785e-015
rhumerus 83.7515 -20.9276 -188.775
rradius 7.55693
rwrist 153.162
rhand -25.304 12.9138
rfingers 7.12502
rthumb 1.21794 -17.0624
lclavicle -8.84592e-015 -1.98785e-015
lhumerus 58.9541 0.139734 89.3165
lradius 10.7891
lwrist -62.526
lhand -22.0951 -2.04501
lfingers 7.12502
lthumb 4.31695 27.891
rfemur 154.864 50.0365 31.8241
rtibia 203.71
rfoot 189.623 92.7341
rtoes -4.58756
lfemur -4.88883 249.312 -238.789
ltibia 206.049
lfoot 95.0643 -97.5543
ltoes 14.0282
100
root -3.46169 6.35916 -1.16566 379.96 -87.7104 -411.42
lowerback 53.1739 -4.19206 5.15312
upperback 5.51183 -4.20917 -2.62816
thorax -15.3247 -2.60453 -3.07155
lowerneck 8.83242 2.32041 -1.73221
upperneck -4.09775 2.85986 -0.447413
head -2.87421 1.46442 0.00852394
rclavicle -1.47101e-014 -5.96354e-015
rhumerus 83.6594 -20.8279 -188.552
rradius 7.63451
rwrist 153.098
rhand -24.9928 12.8466
rfingers 7.12502
rthumb 1.51855 -17.1277
lclavicle -1.47101e-014 -5.96354e-015
lhumerus 59.0946 0.367914 89.6206
lradius 10.5857
lwrist -63.0477
lhand -21.8428 -2.04089
lfingers 7.12502
lthumb 4.56058 27.89
rfemur 153.682 50.5115 32.6227
rtibia 204.253
rfoot 217.523 91.778
rtoes -4.38234
lfemur -4.3125 249.504 -241.096
ltibia 206.588
lfoot 87.4647 -96.8132
ltoes 13.8621
